<svg width="361" height="124" viewBox="0 0 361 124" fill="none" xmlns="http://www.w3.org/2000/svg">
<rect x="153" width="198" height="124" fill="#28BD66"/>
<path d="M134.56 100V24.4H168.364C173.332 24.4 177.832 25.516 181.864 27.748C185.968 29.908 189.208 32.932 191.584 36.82C194.032 40.708 195.256 45.244 195.256 50.428C195.256 55.468 194.068 59.932 191.692 63.82C189.316 67.636 186.184 70.66 182.296 72.892L189.208 84.988C189.496 85.42 189.856 85.78 190.288 86.068C190.72 86.284 191.224 86.392 191.8 86.392H199.144V100H189.424C186.4 100 183.628 99.244 181.108 97.732C178.66 96.22 176.716 94.24 175.276 91.792L166.744 76.456C166.096 76.456 165.412 76.456 164.692 76.456C164.044 76.456 163.396 76.456 162.748 76.456H150.004V100H134.56ZM150.004 62.848H166.528C168.976 62.848 171.208 62.38 173.224 61.444C175.24 60.436 176.824 58.996 177.976 57.124C179.2 55.252 179.812 53.02 179.812 50.428C179.812 47.836 179.2 45.604 177.976 43.732C176.752 41.86 175.132 40.456 173.116 39.52C171.172 38.512 168.976 38.008 166.528 38.008H150.004V62.848ZM233.389 100C227.125 100 221.653 98.812 216.973 96.436C212.365 93.988 208.765 90.676 206.173 86.5C203.653 82.324 202.393 77.644 202.393 72.46C202.393 66.628 203.581 61.552 205.957 57.232C208.333 52.912 211.573 49.564 215.677 47.188C219.781 44.812 224.425 43.624 229.609 43.624C235.801 43.624 240.805 44.92 244.621 47.512C248.509 50.104 251.353 53.596 253.153 57.988C254.953 62.308 255.853 67.132 255.853 72.46C255.853 73.18 255.817 74.044 255.745 75.052C255.673 75.988 255.565 76.708 255.421 77.212H218.161C218.737 79.444 219.709 81.316 221.077 82.828C222.517 84.34 224.281 85.492 226.369 86.284C228.529 87.004 230.941 87.364 233.605 87.364H248.941V100H233.389ZM218.053 67.276H241.057C240.913 65.908 240.661 64.648 240.301 63.496C239.941 62.272 239.437 61.192 238.789 60.256C238.141 59.32 237.385 58.528 236.521 57.88C235.657 57.232 234.649 56.728 233.497 56.368C232.345 56.008 231.085 55.828 229.717 55.828C227.917 55.828 226.297 56.152 224.857 56.8C223.489 57.448 222.337 58.312 221.401 59.392C220.465 60.472 219.709 61.696 219.133 63.064C218.629 64.432 218.269 65.836 218.053 67.276ZM262.498 100L279.022 75.916C276.142 74.476 273.694 72.676 271.678 70.516C269.734 68.284 268.222 65.764 267.142 62.956C266.134 60.148 265.63 57.16 265.63 53.992V44.92H280.426V53.992C280.426 55.864 280.822 57.628 281.614 59.284C282.406 60.94 283.486 62.344 284.854 63.496C286.222 64.576 287.77 65.332 289.498 65.764L303.538 44.92H319.738L303.862 68.032C307.174 69.256 309.982 71.02 312.286 73.324C314.59 75.628 316.354 78.292 317.578 81.316C318.802 84.268 319.414 87.436 319.414 90.82V100H304.618V90.82C304.618 88.66 304.078 86.68 302.998 84.88C301.99 83.08 300.586 81.64 298.786 80.56C297.058 79.408 295.114 78.796 292.954 78.724L278.698 100H262.498Z" fill="white"/>
<rect x="10" width="143" height="124" fill="#041F62"/>
<path d="M91.906 53.2216C90.5386 52.0588 87.5446 49.4264 85.4915 46.9909C83.8136 45.0025 81.1718 46.6538 79.7607 47.8942C78.5563 48.9547 76.1627 51.4926 74.0186 53.1422C72.9373 53.9716 71.0319 55.4621 74.3823 58.4314C77.7324 61.4011 81.5959 65.5237 82.6999 66.7492C84.4348 68.6713 86.3777 67.391 86.8625 66.7452C88.3038 64.8174 90.8074 61.2134 91.9872 60.1207C94.1559 58.1172 94.4209 55.3597 91.906 53.2216Z" fill="#28BD66"/>
<path d="M102.555 48.0381C107.994 40.6939 106.371 38.0238 104.081 35.736C101.792 33.4462 97.8808 30.3935 90.6331 37.4518C88.0897 39.9268 87.4421 41.4251 92.3488 46.9929C97.9773 53.3806 100.428 50.9092 102.555 48.0381Z" fill="#28BD66"/>
<path d="M118.346 22.5891L118.402 22.5359C116.681 21.1043 110.681 23.4412 107.558 25.9374C106.07 27.1247 104.634 27.9788 103.426 28.5885C105.884 28.9428 107.812 30.0468 109.122 31.507C109.753 32.2135 110.869 33.7682 111.221 36.1999C111.901 35.1963 112.761 34.0788 113.867 32.9445C116.615 30.1228 119.473 24.5207 118.346 22.5891Z" fill="#28BD66"/>
<path d="M45.2892 42.2167C46.4805 42.7507 53.7129 45.4703 55.0671 45.2165C56.4212 44.9646 58.2375 44.0214 58.084 42.7545C57.8436 40.7813 57.7469 38.9271 57.9665 37.785C58.3681 35.7208 57.9741 33.2968 56.4952 32.8724C55.0142 32.4501 48.7135 30.9596 47.6302 30.7152C46.5468 30.4672 45.4466 32.0751 44.5755 34.5485C44.295 35.3458 43.4733 36.77 42.6986 38.7679C42.1775 40.105 44.0961 41.6824 45.2892 42.2167Z" fill="#28BD66"/>
<path d="M55.4383 16.0344C53.4119 15.5305 49.9084 20.6647 48.6226 24.9145C48.6226 24.9145 56.3209 26.9504 57.7753 27.1285C58.0898 25.1152 57.4666 16.5402 55.4383 16.0344Z" fill="#28BD66"/>
<path d="M106.326 84.0853C105.801 82.5096 103.174 82.1954 100.972 82.7199C99.752 83.0095 97.7503 82.9889 95.614 82.8203C94.243 82.7103 93.3111 84.7122 93.0991 86.1837C92.8889 87.6514 96.1444 95.3156 96.775 96.5768C97.4057 97.8345 99.1896 99.8306 100.612 99.2094C102.723 98.2851 104.221 97.3346 105.066 96.9935C107.691 95.9443 109.371 94.6849 109.056 93.5315C108.74 92.3765 106.85 85.6572 106.326 84.0853Z" fill="#28BD66"/>
<path d="M122.506 84.8998C121.915 82.8959 113.321 82.6384 111.325 83.036C111.564 84.4793 113.922 92.0865 113.922 92.0865C118.113 90.6226 123.095 86.9033 122.506 84.8998Z" fill="#28BD66"/>
<path d="M87.7736 83.9945C87.5463 81.9358 85.5464 81.7635 81.9464 81.9358C75.8293 82.2294 76.1191 79.8791 79.8895 75.8814C80.6983 75.0236 82.4008 73.8247 81.4878 72.6809C80.7683 71.7794 76.9388 68.4765 74.1682 65.7171C71.4091 62.9465 68.1063 59.1153 67.2046 58.3975C66.0609 57.4847 64.8223 59.1477 64.004 59.996C60.6917 63.4237 56.2167 64.5088 58.12 58.7951C58.9778 56.2253 59.0915 52.7956 57.035 52.5683C54.9763 52.3409 49.721 52.7956 45.7212 50.6251C41.7215 48.4548 38.2462 46.3602 36.1555 51.235C33.0214 58.545 31.8924 67.1792 32.008 74.6236C32.275 91.7496 34.3033 98.9479 37.4451 102.092C40.587 105.232 49.7286 106.616 65.2618 107.876C72.6837 108.478 81.3403 106.864 88.6505 103.728C93.5252 101.639 91.4306 98.164 89.2586 94.1643C87.0879 90.1644 88.0007 86.051 87.7736 83.9945Z" fill="#28BD66"/>
<path d="M-3.87158e-07 115.143L10 124L10 106.286L-3.87158e-07 115.143Z" fill="#041F62"/>
<path d="M-1.16147e-06 97.4286L10 106.286L10 88.5714L-1.16147e-06 97.4286Z" fill="#041F62"/>
<path d="M-1.93579e-06 79.7143L10 88.5714L10 70.8571L-1.93579e-06 79.7143Z" fill="#041F62"/>
<path d="M-2.71011e-06 62L10 70.8571L10 53.1428L-2.71011e-06 62Z" fill="#041F62"/>
<path d="M-3.48442e-06 44.2857L10 53.1428L10 35.4286L-3.48442e-06 44.2857Z" fill="#041F62"/>
<path d="M-4.25874e-06 26.5714L10 35.4286L10 17.7143L-4.25874e-06 26.5714Z" fill="#041F62"/>
<path d="M-5.03305e-06 8.85714L10 17.7143L10 -4.37114e-07L-5.03305e-06 8.85714Z" fill="#041F62"/>
<path d="M361 8.85715L351 -4.37114e-07L351 17.7143L361 8.85715Z" fill="#28BD66"/>
<path d="M361 26.5714L351 17.7143L351 35.4286L361 26.5714Z" fill="#28BD66"/>
<path d="M361 44.2857L351 35.4286L351 53.1429L361 44.2857Z" fill="#28BD66"/>
<path d="M361 62L351 53.1429L351 70.8572L361 62Z" fill="#28BD66"/>
<path d="M361 79.7143L351 70.8572L351 88.5714L361 79.7143Z" fill="#28BD66"/>
<path d="M361 97.4286L351 88.5714L351 106.286L361 97.4286Z" fill="#28BD66"/>
<path d="M361 115.143L351 106.286L351 124L361 115.143Z" fill="#28BD66"/>
</svg>
